<svg xmlns="http://www.w3.org/2000/svg" width="880" height="520" viewBox="0 0 880 520" font-family='system-ui, -apple-system, "Segoe UI", sans-serif'>
<rect x="0.5" y="0.5" width="879" height="519" rx="10" fill="#fcfcfb" stroke="rgba(11,11,11,0.10)"/>
<text x="24" y="36" font-size="15" font-weight="600" fill="#0b0b0b">Backpressure under burst overload</text>
<text x="24" y="56" font-size="12" fill="#52514e">30k pps steady + a 200k-packet burst every second &#183; lane capacity: normal 64, high 16 &#183; 1 worker</text>
<rect x="586" y="27" width="10" height="10" rx="2" fill="#2a78d6"/>
<text x="602" y="36" font-size="12" fill="#52514e">Normal lane</text>
<rect x="706" y="27" width="10" height="10" rx="2" fill="#eb6834"/>
<text x="722" y="36" font-size="12" fill="#52514e">High-priority lane</text>
<line x1="88.0" y1="100" x2="88.0" y2="300" stroke="#e1e0d9"/>
<line x1="88.0" y1="360" x2="88.0" y2="470" stroke="#e1e0d9"/>
<text x="88.0" y="492" font-size="11" fill="#898781" text-anchor="middle" style="font-variant-numeric:tabular-nums">0s</text>
<line x1="172.8" y1="100" x2="172.8" y2="300" stroke="#e1e0d9"/>
<line x1="172.8" y1="360" x2="172.8" y2="470" stroke="#e1e0d9"/>
<text x="172.8" y="492" font-size="11" fill="#898781" text-anchor="middle" style="font-variant-numeric:tabular-nums">1s</text>
<line x1="257.7" y1="100" x2="257.7" y2="300" stroke="#e1e0d9"/>
<line x1="257.7" y1="360" x2="257.7" y2="470" stroke="#e1e0d9"/>
<text x="257.7" y="492" font-size="11" fill="#898781" text-anchor="middle" style="font-variant-numeric:tabular-nums">2s</text>
<line x1="342.5" y1="100" x2="342.5" y2="300" stroke="#e1e0d9"/>
<line x1="342.5" y1="360" x2="342.5" y2="470" stroke="#e1e0d9"/>
<text x="342.5" y="492" font-size="11" fill="#898781" text-anchor="middle" style="font-variant-numeric:tabular-nums">3s</text>
<line x1="427.4" y1="100" x2="427.4" y2="300" stroke="#e1e0d9"/>
<line x1="427.4" y1="360" x2="427.4" y2="470" stroke="#e1e0d9"/>
<text x="427.4" y="492" font-size="11" fill="#898781" text-anchor="middle" style="font-variant-numeric:tabular-nums">4s</text>
<line x1="512.2" y1="100" x2="512.2" y2="300" stroke="#e1e0d9"/>
<line x1="512.2" y1="360" x2="512.2" y2="470" stroke="#e1e0d9"/>
<text x="512.2" y="492" font-size="11" fill="#898781" text-anchor="middle" style="font-variant-numeric:tabular-nums">5s</text>
<line x1="597.1" y1="100" x2="597.1" y2="300" stroke="#e1e0d9"/>
<line x1="597.1" y1="360" x2="597.1" y2="470" stroke="#e1e0d9"/>
<text x="597.1" y="492" font-size="11" fill="#898781" text-anchor="middle" style="font-variant-numeric:tabular-nums">6s</text>
<line x1="681.9" y1="100" x2="681.9" y2="300" stroke="#e1e0d9"/>
<line x1="681.9" y1="360" x2="681.9" y2="470" stroke="#e1e0d9"/>
<text x="681.9" y="492" font-size="11" fill="#898781" text-anchor="middle" style="font-variant-numeric:tabular-nums">7s</text>
<text x="88" y="90" font-size="11" fill="#898781" letter-spacing="0.06em">CUMULATIVE DROPPED PACKETS</text>
<line x1="88" y1="300.0" x2="760" y2="300.0" stroke="#c3c2b7"/>
<text x="80" y="304.0" font-size="11" fill="#898781" text-anchor="end" style="font-variant-numeric:tabular-nums">0</text>
<line x1="88" y1="233.3" x2="760" y2="233.3" stroke="#e1e0d9"/>
<text x="80" y="237.3" font-size="11" fill="#898781" text-anchor="end" style="font-variant-numeric:tabular-nums">4k</text>
<line x1="88" y1="166.7" x2="760" y2="166.7" stroke="#e1e0d9"/>
<text x="80" y="170.7" font-size="11" fill="#898781" text-anchor="end" style="font-variant-numeric:tabular-nums">8k</text>
<line x1="88" y1="100.0" x2="760" y2="100.0" stroke="#e1e0d9"/>
<text x="80" y="104.0" font-size="11" fill="#898781" text-anchor="end" style="font-variant-numeric:tabular-nums">12k</text>
<text x="88" y="350" font-size="11" fill="#898781" letter-spacing="0.06em">RECEIVE RATE &#183; PACKETS/S</text>
<line x1="88" y1="470.0" x2="760" y2="470.0" stroke="#c3c2b7"/>
<text x="80" y="474.0" font-size="11" fill="#898781" text-anchor="end" style="font-variant-numeric:tabular-nums">0</text>
<line x1="88" y1="415.0" x2="760" y2="415.0" stroke="#e1e0d9"/>
<text x="80" y="419.0" font-size="11" fill="#898781" text-anchor="end" style="font-variant-numeric:tabular-nums">400k</text>
<line x1="88" y1="360.0" x2="760" y2="360.0" stroke="#e1e0d9"/>
<text x="80" y="364.0" font-size="11" fill="#898781" text-anchor="end" style="font-variant-numeric:tabular-nums">800k</text>
<path d="M99.0 299.9H120.2V299.9H141.5V299.9H163.5V299.8H183.9V291.1H202.5V256.9H221.2V256.9H239.9V256.9H259.4V256.9H279.8V235.2H299.3V221.3H318.8V221.3H338.3V221.3H358.7V212.2H380.7V195.2H402.8V195.2H424.0V195.2H443.5V189.4H463.0V158.3H482.5V158.3H504.6V158.3H526.7V137.8H546.2V117.3H564.8V117.3H584.4V117.3H606.4V117.3H628.5V117.3H650.5V117.3H671.8V117.3H693.0V117.3H712.5V117.3H712.5V117.3H712.5V117.3H738.8V117.3H760.0V117.3" fill="none" stroke="#2a78d6" stroke-width="2" stroke-linejoin="round"/>
<path d="M99.0 300.0H120.2V300.0H141.5V300.0H163.5V300.0H183.9V300.0H202.5V300.0H221.2V300.0H239.9V300.0H259.4V300.0H279.8V300.0H299.3V300.0H318.8V300.0H338.3V300.0H358.7V300.0H380.7V300.0H402.8V300.0H424.0V300.0H443.5V300.0H463.0V300.0H482.5V300.0H504.6V300.0H526.7V300.0H546.2V300.0H564.8V300.0H584.4V300.0H606.4V300.0H628.5V300.0H650.5V300.0H671.8V300.0H693.0V300.0H712.5V300.0H712.5V300.0H712.5V300.0H738.8V300.0H760.0V300.0" fill="none" stroke="#eb6834" stroke-width="2" stroke-linejoin="round"/>
<circle cx="768" cy="117.3" r="4" fill="#2a78d6"/>
<text x="778" y="121.3" font-size="12" fill="#52514e" style="font-variant-numeric:tabular-nums">Normal &#183; 10,960</text>
<circle cx="768" cy="294.0" r="4" fill="#eb6834"/>
<text x="778" y="298.0" font-size="12" fill="#52514e" style="font-variant-numeric:tabular-nums">High &#183; 1</text>
<polyline points="109.6,466.0 130.8,465.8 152.5,465.9 173.7,441.9 193.2,372.3 211.9,465.9 230.5,465.8 249.6,465.9 269.6,397.3 289.5,423.3 309.0,465.9 328.5,465.8 348.5,436.7 369.7,391.9 391.8,465.9 413.4,465.9 433.8,441.6 453.3,376.4 472.8,465.8 493.6,466.0 515.6,426.2 536.4,395.9 555.5,465.8 574.6,465.9 595.4,466.5 617.5,470.0 639.5,470.0 661.2,470.0 682.4,470.0 702.7,470.0 725.6,470.0 749.4,470.0" fill="none" stroke="#898781" stroke-width="1.5" stroke-linejoin="round"/>
<text x="201.2" y="376.3" font-size="11" fill="#898781" text-anchor="start">burst peak &#8776; 710k pps</text>
</svg>
